<svg width="16" height="15" viewBox="0 0 16 15" fill="none" xmlns="http://www.w3.org/2000/svg">
<path d="M8.02479 1.62051C10.1215 1.62051 10.3702 1.62768 11.198 1.66235C12.054 1.69822 12.9355 1.87636 13.5591 2.44603C14.1887 3.02109 14.3778 3.81852 14.4171 4.6028C14.455 5.35898 14.4629 5.58613 14.4629 7.50139C14.4629 9.41666 14.455 9.64381 14.4171 10.4C14.3785 11.1777 14.1789 11.9907 13.5591 12.5568C12.9296 13.1318 12.0573 13.3046 11.198 13.3404C10.3702 13.3751 10.1215 13.3823 8.02479 13.3823C5.92806 13.3823 5.67939 13.3751 4.85156 13.3404C4.00672 13.3052 3.10494 13.1187 2.49045 12.5568C1.86418 11.9847 1.67178 11.1795 1.63252 10.4C1.59456 9.64381 1.58671 9.41666 1.58671 7.50139C1.58671 5.58613 1.59456 5.35898 1.63252 4.6028C1.67113 3.82808 1.87269 3.01033 2.49045 2.44603C3.11868 1.87217 3.99494 1.69822 4.85156 1.66235C5.67939 1.62768 5.92806 1.62051 8.02479 1.62051ZM8.02479 0.328125C5.89207 0.328125 5.62442 0.336494 4.78677 0.371165C3.57284 0.421975 2.36742 0.730426 1.48986 1.53204C0.609021 2.33664 0.274617 3.43535 0.218992 4.54362C0.181037 5.30876 0.171875 5.55325 0.171875 7.50139C0.171875 9.44953 0.181037 9.69402 0.218992 10.4592C0.274617 11.5668 0.613602 12.6709 1.48986 13.4707C2.37004 14.2748 3.57481 14.5808 4.78677 14.6316C5.62442 14.6663 5.89207 14.6747 8.02479 14.6747C10.1575 14.6747 10.4252 14.6663 11.2628 14.6316C12.4761 14.5808 13.6828 14.2718 14.5597 13.4707C15.4412 12.6655 15.775 11.5674 15.8306 10.4592C15.8685 9.69402 15.8777 9.44953 15.8777 7.50139C15.8777 5.55325 15.8685 5.30876 15.8306 4.54362C15.775 3.43475 15.4366 2.33305 14.5597 1.53204C13.6809 0.72923 12.4728 0.421377 11.2628 0.371165C10.4252 0.336494 10.1575 0.328125 8.02479 0.328125Z" fill="white"/>
<path d="M8.02857 3.81641C5.80161 3.81641 3.99609 5.46566 3.99609 7.49988C3.99609 9.5341 5.80161 11.1834 8.02857 11.1834C10.2555 11.1834 12.061 9.5341 12.061 7.49988C12.061 5.46566 10.2555 3.81641 8.02857 3.81641ZM8.02857 9.89097C6.58298 9.89097 5.41093 8.82036 5.41093 7.49988C5.41093 6.1794 6.58298 5.10879 8.02857 5.10879C9.47416 5.10879 10.6462 6.1794 10.6462 7.49988C10.6462 8.82036 9.47416 9.89097 8.02857 9.89097Z" fill="white"/>
<path d="M12.2158 4.549C12.7362 4.549 13.1581 4.16027 13.1581 3.68075C13.1581 3.20123 12.7362 2.8125 12.2158 2.8125C11.6953 2.8125 11.2734 3.20123 11.2734 3.68075C11.2734 4.16027 11.6953 4.549 12.2158 4.549Z" fill="white"/>
</svg>
