<svg width="18" height="20" viewBox="0 0 18 20" fill="none" xmlns="http://www.w3.org/2000/svg">
<path d="M6.38844 17.8628L6.38904 17.8636C6.71757 18.3018 7.14911 18.6602 7.64975 18.9079C8.15047 19.1556 8.7053 19.2852 9.26886 19.2852C9.83242 19.2852 10.3872 19.1556 10.888 18.9079C11.3886 18.6602 11.8202 18.3018 12.1487 17.8636L12.1493 17.8628C13.8141 15.6483 15.0522 13.7317 15.8711 12.1204C16.6974 10.4942 17.0609 9.24757 17.0612 8.35275L6.38844 17.8628ZM6.38844 17.8628C4.7236 15.6483 3.48551 13.7317 2.66666 12.1204C1.84013 10.4939 1.47668 9.24711 1.47656 8.35226C1.47916 6.35253 2.29604 4.43127 3.75478 3.01106C5.21413 1.59026 7.19678 0.787583 9.26886 0.785157M6.38844 17.8628L9.26886 0.785157M9.26886 0.785157C11.3409 0.787583 13.3236 1.59026 14.7829 3.01106C16.2418 4.43137 17.0587 6.3528 17.0612 8.35266L9.26886 0.785157ZM6.9579 11.7337C7.64364 12.1799 8.44782 12.4168 9.26886 12.4168C10.3694 12.4168 11.4287 11.9913 12.2128 11.2279C12.9976 10.4637 13.4423 9.42301 13.4423 8.33349C13.4423 7.52136 13.1948 6.72918 12.7337 6.05722C12.2728 5.38552 11.6198 4.86496 10.8595 4.55833C10.0994 4.25177 9.26405 4.17185 8.45837 4.32789C7.65261 4.48395 6.90981 4.86962 6.32492 5.43911C5.73982 6.00882 5.33899 6.73713 5.17639 7.53307C5.01376 8.32916 5.09742 9.1541 5.41588 9.9027C5.73424 10.6511 6.27196 11.2874 6.9579 11.7337Z" stroke="white" stroke-width="1.5"/>
</svg>
