<svg width="20" height="20" viewBox="0 0 20 20" fill="none" xmlns="http://www.w3.org/2000/svg">
<path d="M10.832 0.832711C10.832 0.611697 10.9198 0.399736 11.0761 0.243455C11.2324 0.0871751 11.4443 -0.000622318 11.6654 -0.000622318C13.8747 0.00180401 15.993 0.880557 17.5552 2.44283C19.1175 4.00511 19.9963 6.12332 19.9987 8.33271C19.9987 8.55373 19.9109 8.76569 19.7546 8.92197C19.5983 9.07825 19.3864 9.16605 19.1654 9.16605C18.9443 9.16605 18.7324 9.07825 18.5761 8.92197C18.4198 8.76569 18.332 8.55373 18.332 8.33271C18.33 6.56521 17.627 4.87067 16.3772 3.62086C15.1274 2.37105 13.4329 1.66803 11.6654 1.66604C11.4443 1.66604 11.2324 1.57825 11.0761 1.42197C10.9198 1.26569 10.832 1.05372 10.832 0.832711ZM11.6654 4.99938C12.5494 4.99938 13.3973 5.35057 14.0224 5.97569C14.6475 6.60081 14.9987 7.44866 14.9987 8.33271C14.9987 8.55373 15.0865 8.76569 15.2428 8.92197C15.399 9.07825 15.611 9.16605 15.832 9.16605C16.053 9.16605 16.265 9.07825 16.4213 8.92197C16.5776 8.76569 16.6654 8.55373 16.6654 8.33271C16.664 7.00704 16.1368 5.73603 15.1994 4.79864C14.262 3.86124 12.991 3.33403 11.6654 3.33271C11.4443 3.33271 11.2324 3.42051 11.0761 3.57679C10.9198 3.73307 10.832 3.94503 10.832 4.16604C10.832 4.38706 10.9198 4.59902 11.0761 4.7553C11.2324 4.91158 11.4443 4.99938 11.6654 4.99938ZM19.2429 13.9485C19.7258 14.4328 19.997 15.0888 19.997 15.7727C19.997 16.4566 19.7258 17.1126 19.2429 17.5969L18.4845 18.471C11.6595 25.0052 -4.94881 8.40104 1.48452 1.55438L2.44285 0.721044C2.92766 0.251609 3.5778 -0.00808142 4.25261 -0.00184328C4.92742 0.00439485 5.57264 0.27606 6.04869 0.754378C6.07452 0.780211 7.61869 2.78604 7.61869 2.78604C8.07688 3.2674 8.33194 3.90682 8.33085 4.57138C8.32977 5.23594 8.07262 5.87452 7.61285 6.35438L6.64785 7.56771C7.18189 8.8653 7.96707 10.0446 8.95828 11.0378C9.94948 12.031 11.1272 12.8186 12.4237 13.3552L13.6445 12.3844C14.1244 11.925 14.7629 11.6681 15.4273 11.6672C16.0916 11.6663 16.7308 11.9213 17.212 12.3794C17.212 12.3794 19.217 13.9227 19.2429 13.9485ZM18.0962 15.1602C18.0962 15.1602 16.102 13.626 16.0762 13.6002C15.9045 13.43 15.6725 13.3345 15.4308 13.3345C15.189 13.3345 14.957 13.43 14.7854 13.6002C14.7629 13.6235 13.082 14.9627 13.082 14.9627C12.9688 15.0529 12.8339 15.112 12.6909 15.1342C12.5478 15.1564 12.4015 15.1409 12.2662 15.0894C10.5866 14.464 9.06097 13.485 7.79272 12.2186C6.52446 10.9522 5.54319 9.42807 4.91535 7.74938C4.85968 7.61226 4.84154 7.46279 4.86277 7.31633C4.88401 7.16987 4.94386 7.03171 5.03619 6.91605C5.03619 6.91605 6.37535 5.23438 6.39785 5.21271C6.56808 5.04103 6.66359 4.80906 6.66359 4.56729C6.66359 4.32553 6.56808 4.09356 6.39785 3.92188C6.37202 3.89688 4.83785 1.90104 4.83785 1.90104C4.6636 1.7448 4.43619 1.66112 4.20223 1.66717C3.96826 1.67321 3.74547 1.76851 3.57952 1.93354L2.62119 2.76688C-2.08048 8.42021 12.312 22.0144 17.2662 17.3327L18.0254 16.4577C18.2033 16.2929 18.3101 16.0654 18.3233 15.8233C18.3365 15.5812 18.2551 15.3434 18.0962 15.1602Z" fill="white"/>
</svg>
