<svg width="22" height="16" viewBox="0 0 22 16" fill="none" xmlns="http://www.w3.org/2000/svg">
<path d="M19.28 4.40158C19.2921 4.56862 19.2921 4.73645 19.2921 4.90507C19.2921 10.0564 14.9986 15.9962 7.15011 15.9962V15.993C4.83177 15.9962 2.56111 15.3898 0.609375 14.2459C0.946508 14.2831 1.28537 14.3013 1.62511 14.3021C3.54737 14.3036 5.41418 13.7147 6.92477 12.6301C5.09871 12.5984 3.49711 11.5107 2.93811 9.92261C3.57771 10.035 4.23637 10.0121 4.86471 9.85611C2.87311 9.48878 1.44137 7.89042 1.44137 6.03477C1.44137 6.01814 1.44137 6.00152 1.44137 5.98568C2.03504 6.2881 2.69891 6.45514 3.37837 6.47335C1.50291 5.3294 0.923975 3.05101 2.05671 1.26977C4.22337 3.70492 7.42051 5.18532 10.8516 5.34286C10.5076 3.98912 10.9782 2.57047 12.0858 1.6181C13.8044 0.141659 16.5075 0.217658 18.1238 1.78752C19.0798 1.61573 19.9958 1.29511 20.8339 0.841486C20.515 1.74398 19.8485 2.5103 18.9576 2.99796C19.8043 2.90534 20.6302 2.69872 21.4094 2.38364C20.8365 3.16659 20.1154 3.84979 19.28 4.40158Z" fill="white"/>
</svg>
