<svg width="18" height="20" viewBox="0 0 18 20" fill="none" xmlns="http://www.w3.org/2000/svg">
<path d="M9.26774 0.777344C6.98874 0.779659 4.80381 1.61835 3.19231 3.10939C1.58081 4.60044 0.674378 6.62206 0.671875 8.73072C0.671875 12.9317 7.8924 18.6987 8.71245 19.3429L9.26774 19.7772L9.82303 19.3429C10.6431 18.6987 17.8636 12.9317 17.8636 8.73072C17.8611 6.62206 16.9547 4.60044 15.3432 3.10939C13.7317 1.61835 11.5467 0.779659 9.26774 0.777344ZM9.26774 12.7074C8.41769 12.7074 7.58673 12.4742 6.87994 12.0372C6.17315 11.6002 5.62227 10.9792 5.29697 10.2525C4.97167 9.52588 4.88655 8.72631 5.05239 7.9549C5.21823 7.1835 5.62757 6.47493 6.22864 5.91878C6.82972 5.36263 7.59554 4.98388 8.42926 4.83044C9.26297 4.677 10.1271 4.75575 10.9125 5.05674C11.6978 5.35772 12.3691 5.86743 12.8413 6.52139C13.3136 7.17535 13.5657 7.9442 13.5657 8.73072C13.5643 9.78501 13.1111 10.7958 12.3053 11.5413C11.4996 12.2868 10.4072 12.7061 9.26774 12.7074Z" fill="white"/>
</svg>
