<svg width="21" height="20" viewBox="0 0 21 20" fill="none" xmlns="http://www.w3.org/2000/svg">
<path fill-rule="evenodd" clip-rule="evenodd" d="M17.9274 3.53865C15.9809 1.759 13.393 0.778135 10.6361 0.777344C4.95512 0.777344 0.331454 5.00005 0.328854 10.1918C0.327987 11.8511 0.802921 13.4708 1.70512 14.899L0.242188 19.7772L5.70565 18.4678C7.21105 19.2182 8.90625 19.6133 10.6309 19.6141H10.6353C16.3154 19.6141 20.9399 15.3906 20.9425 10.1989C20.9443 7.68378 19.8731 5.31751 17.9274 3.53865ZM10.6361 18.0236H10.6327C9.09519 18.0236 7.58805 17.646 6.27245 16.9327L5.95959 16.7633L2.71739 17.5399L3.58319 14.652L3.37952 14.3559C2.52152 13.1098 2.06912 11.6698 2.06999 10.1918C2.07172 5.87721 5.91539 2.36699 10.6405 2.36699C12.9285 2.36699 15.0795 3.1824 16.6967 4.66122C18.3139 6.14083 19.204 8.10652 19.2031 10.1973C19.2005 14.5134 15.3577 18.0236 10.6361 18.0236ZM15.3352 12.163C15.0778 12.045 13.8116 11.4758 13.575 11.3974C13.3393 11.3191 13.1677 11.2795 12.9952 11.5146C12.8227 11.7497 12.3305 12.2801 12.1797 12.4377C12.0297 12.5944 11.8789 12.6142 11.6215 12.4963C11.3641 12.3783 10.5339 12.1305 9.55019 11.3286C8.78492 10.7047 8.26752 9.93446 8.11759 9.69855C7.96765 9.46263 8.10199 9.33597 8.23025 9.2188C8.34639 9.11351 8.48765 8.9441 8.61679 8.80635C8.74679 8.67018 8.78925 8.57202 8.87592 8.41448C8.96172 8.25773 8.91925 8.11998 8.85425 8.00202C8.78925 7.88486 8.27445 6.72666 8.06039 6.25562C7.85152 5.79646 7.63919 5.859 7.48059 5.85188C7.33065 5.84475 7.15905 5.84396 6.98659 5.84396C6.81499 5.84396 6.53592 5.90254 6.30019 6.13846C6.06445 6.37437 5.39885 6.94358 5.39885 8.10098C5.39885 9.25918 6.32185 10.3778 6.45012 10.5345C6.57839 10.6913 8.26579 13.0678 10.8493 14.0867C11.4638 14.329 11.9439 14.4738 12.3175 14.5823C12.9345 14.7612 13.4961 14.7359 13.9399 14.6757C14.4347 14.6084 15.4635 14.1065 15.6784 13.5571C15.8933 13.0077 15.8933 12.5359 15.8283 12.4385C15.7642 12.3395 15.5926 12.2809 15.3352 12.163Z" fill="white"/>
</svg>
