<svg width="20" height="21" viewBox="0 0 20 21" fill="none" xmlns="http://www.w3.org/2000/svg">
<path d="M18.2339 9.41995C18.0234 9.41995 17.8214 9.32974 17.6725 9.16917C17.5236 9.00859 17.44 8.79081 17.44 8.56373C17.4383 6.74761 16.7685 5.0064 15.5777 3.72221C14.3868 2.43802 12.7722 1.71576 11.0881 1.71395C10.8775 1.71395 10.6756 1.62374 10.5267 1.46317C10.3778 1.3026 10.2941 1.08481 10.2941 0.857729C10.2941 0.630644 10.3778 0.412861 10.5267 0.252288C10.6756 0.0917155 10.8775 0.00150666 11.0881 0.00150666C13.1932 0.00399964 15.2113 0.906889 16.6998 2.51208C18.1884 4.11726 19.0256 6.29365 19.0279 8.56373C19.0279 8.79081 18.9443 9.00859 18.7954 9.16917C18.6465 9.32974 18.4445 9.41995 18.2339 9.41995ZM15.852 8.56373C15.852 7.20122 15.3501 5.89452 14.4567 4.93108C13.5633 3.96765 12.3516 3.42639 11.0881 3.42639C10.8775 3.42639 10.6756 3.5166 10.5267 3.67718C10.3778 3.83775 10.2941 4.05553 10.2941 4.28262C10.2941 4.5097 10.3778 4.72748 10.5267 4.88806C10.6756 5.04863 10.8775 5.13884 11.0881 5.13884C11.9304 5.13884 12.7382 5.49967 13.3338 6.14196C13.9294 6.78426 14.264 7.65539 14.264 8.56373C14.264 8.79081 14.3477 9.00859 14.4966 9.16917C14.6455 9.32974 14.8474 9.41995 15.058 9.41995C15.2686 9.41995 15.4705 9.32974 15.6194 9.16917C15.7683 9.00859 15.852 8.79081 15.852 8.56373ZM17.5853 18.9788L18.3078 18.0806C18.7677 17.5831 19.0259 16.9093 19.0259 16.2068C19.0259 15.5043 18.7677 14.8305 18.3078 14.333C18.2832 14.3064 16.3728 12.7215 16.3728 12.7215C15.9144 12.2509 15.3054 11.9888 14.6724 11.9898C14.0394 11.9908 13.4311 12.2547 12.9738 12.7267L11.4605 14.1018C10.2252 13.5504 9.10304 12.7414 8.15852 11.7211C7.21399 10.7007 6.46569 9.48925 5.95657 8.15617L7.22695 6.52934C7.665 6.03631 7.91001 5.38019 7.91104 4.69737C7.91208 4.01456 7.66906 3.35758 7.2325 2.863C7.2325 2.863 5.76125 0.805499 5.73664 0.778956C5.28364 0.287269 4.66943 0.00751907 4.02674 0.000149367C3.38405 -0.00722033 2.76447 0.258382 2.30187 0.73957L1.38879 1.59579C-4.00554 8.34453 7.61044 20.7743 14.0751 20.5508C14.7279 20.5549 15.3748 20.4179 15.9777 20.1479C16.5806 19.8779 17.1272 19.4804 17.5853 18.9788Z" fill="white"/>
</svg>
