<svg width="22" height="20" viewBox="0 0 22 20" fill="none" xmlns="http://www.w3.org/2000/svg">
<path d="M11.2125 2.48891C13.9893 2.48891 14.3186 2.49841 15.415 2.54433C16.5486 2.59183 17.716 2.82774 18.5419 3.58219C19.3756 4.34377 19.6261 5.39984 19.6781 6.4385C19.7284 7.43995 19.7388 7.74078 19.7388 10.2773C19.7388 12.8137 19.7284 13.1146 19.6781 14.116C19.627 15.146 19.3626 16.2226 18.5419 16.9723C17.7082 17.7339 16.5529 17.9627 15.415 18.0102C14.3186 18.0561 13.9893 18.0656 11.2125 18.0656C8.4357 18.0656 8.10637 18.0561 7.01003 18.0102C5.89117 17.9635 4.6969 17.7165 3.8831 16.9723C3.0537 16.2147 2.7989 15.1483 2.7469 14.116C2.69663 13.1146 2.68623 12.8137 2.68623 10.2773C2.68623 7.74078 2.69663 7.43995 2.7469 6.4385C2.79803 5.41251 3.06497 4.32952 3.8831 3.58219C4.7151 2.8222 5.87557 2.59183 7.01003 2.54433C8.10637 2.49841 8.4357 2.48891 11.2125 2.48891ZM11.2125 0.777344C8.38803 0.777344 8.03357 0.788427 6.92423 0.834343C5.31657 0.901634 3.72017 1.31013 2.55797 2.37174C1.39143 3.43732 0.948567 4.89239 0.8749 6.36012C0.824633 7.37345 0.8125 7.69723 0.8125 10.2773C0.8125 12.8573 0.824633 13.1811 0.8749 14.1944C0.948567 15.6613 1.3975 17.1235 2.55797 18.1828C3.72363 19.2475 5.31917 19.6529 6.92423 19.7202C8.03357 19.7661 8.38803 19.7772 11.2125 19.7772C14.037 19.7772 14.3914 19.7661 15.5008 19.7202C17.1076 19.6529 18.7057 19.2436 19.867 18.1828C21.0344 17.1164 21.4764 15.6621 21.5501 14.1944C21.6004 13.1811 21.6125 12.8573 21.6125 10.2773C21.6125 7.69723 21.6004 7.37345 21.5501 6.36012C21.4764 4.8916 21.0284 3.43257 19.867 2.37174C18.7031 1.30855 17.1032 0.900843 15.5008 0.834343C14.3914 0.788427 14.037 0.777344 11.2125 0.777344Z" fill="white"/>
</svg>
